<svg id="Layer_1" data-name="Layer 1" xmlns="http://www.w3.org/2000/svg" xmlns:xlink="http://www.w3.org/1999/xlink" viewBox="0 0 1920 1080"><defs><style>.cls-1,.cls-3{fill:#fff;}.cls-1{filter:url(#luminosity-invert-noclip);}.cls-2{mask:url(#mask);}.cls-4{opacity:0.83;}.cls-5{fill:url(#linear-gradient);}.cls-6{opacity:0.89;}.cls-7{fill:#e57356;}.cls-8{fill:#f2f2f3;}.cls-9{fill:#858486;}.cls-10{fill:#cfc5a2;}.cls-11{fill:#7db888;}.cls-12{fill:#59ab72;}.cls-13{fill:#5fbe99;}.cls-14{fill:#d8cfb0;}.cls-15{fill:#81c9aa;}.cls-16{fill:#357ec0;}.cls-17{fill:#f2f1de;}.cls-18{fill:#f9f8f2;}.cls-19{fill:#73ad8f;}.cls-20{fill:#5587c5;}.cls-21{fill:#1175bb;}.cls-22{fill:#8fb9a1;}.cls-23{fill:#efe4b8;}.cls-24{fill:#f3e9c5;}.cls-25{fill:#e2a762;}.cls-26{fill:#bdbec0;}.cls-27{fill:#50559f;}.cls-28{fill:#6e6f72;}.cls-29{fill:#f39d81;}.cls-30{fill:#f5af94;}.cls-31{fill:#713a2b;}.cls-32{fill:#58150b;}.cls-33{fill:#dc953f;}.cls-34{fill:#293990;}.cls-35{fill:#b28854;}</style><filter id="luminosity-invert-noclip" x="0" y="-1" width="1920" height="1170" filterUnits="userSpaceOnUse" color-interpolation-filters="sRGB"><feColorMatrix values="-1 0 0 0 1 0 -1 0 0 1 0 0 -1 0 1 0 0 0 1 0" result="invert"/><feFlood flood-color="#fff" result="bg"/><feBlend in="invert" in2="bg"/></filter><mask id="mask" x="0" y="-1" width="1920" height="1170" maskUnits="userSpaceOnUse"><path class="cls-1" d="M0,1169v-92c106.39,4.38,244.94-1.52,400-42,154-40.2,172.74-75,298-92,208.78-28.4,246.28,56,411,15,135.4-33.67,126.46-94.75,297-148,153.12-47.81,201.4-11.39,288-52,83.17-39,179.36-138.56,226-410v821Z"/></mask><linearGradient id="linear-gradient" y1="580" x2="1920" y2="580" gradientUnits="userSpaceOnUse"><stop offset="0.04" stop-color="#005980"/><stop offset="0.4" stop-color="teal"/><stop offset="1" stop-color="#00d99d"/></linearGradient></defs><title>triffic_background02</title><g class="cls-2"><rect class="cls-3" x="0.5" y="-0.5" width="1919" height="1161"/><path d="M1919,0V1160H1V0H1919m1-1H0V1161H1920V-1Z"/><g class="cls-4"><rect class="cls-5" y="-1" width="1920" height="1162"/></g><g class="cls-6"><path class="cls-7" d="M1545.56,410.22q5.85,10,11.71,19.9c3.88,6.65,7.72,13.32,11.61,20,5.31,9.06,10.67,18.1,16,27.17,4.77,8.16,9.48,16.37,14.26,24.54,5.74,9.79,11.55,19.55,17.28,29.35,5.37,9.18,10.66,18.41,16,27.59,6,10.31,12.13,20.57,18.16,30.87,4.45,7.6,8.83,15.25,13.28,22.86,3.78,6.47,7.64,12.9,11.43,19.38,3.89,6.64,7.72,13.32,11.61,20,5.31,9.07,10.66,18.1,16,27.17s10.67,18.41,16,27.59c4.7,8.06,9.48,16.07,14.19,24.12,3,5.1,5.91,10.24,8.91,15.44-5.66,3.33-11.21,6.62-16.78,9.88-6.59,3.85-13.21,7.65-19.81,11.5q-10.14,5.91-20.25,11.89c-9.78,5.76-19.55,11.55-29.35,17.29-9.18,5.37-18.4,10.66-27.59,16-8,4.71-16.06,9.49-24.12,14.19-7.55,4.41-15.14,8.76-22.69,13.16-6.48,3.78-12.92,7.63-19.4,11.41-2.75,1.6-5.55,3.11-8.33,4.66a21.32,21.32,0,0,0,.2-2.75c-.36-7-.79-14-1.15-21-.37-7.2-.67-14.4-1-21.6q-.6-11.89-1.24-23.8c-.29-5.51-.64-11-.91-16.55-.51-10.57-1-21.15-1.47-31.72-.55-11.44-1.14-22.89-1.69-34.33-.22-4.36-.4-8.72-.6-13.13,2.28.6,4.31,1.09,6.31,1.68a58.34,58.34,0,0,0,20.88,2A63,63,0,0,0,1605.54,683a65,65,0,0,0,12.64-12.16c6.55-8.09,10.36-17.42,12.55-27.41a58.53,58.53,0,0,0,.07-23.62,75.51,75.51,0,0,0-2.3-7.66V612c-.15-.43-.29-.87-.44-1.3v0l-.47-1.21a56.52,56.52,0,0,0-5.95-12.69l-1.12-.9h0a9.93,9.93,0,0,0-.89-2.36,63.55,63.55,0,0,0-33.93-24.94,62.17,62.17,0,0,0-14.85-2.84,63.73,63.73,0,0,0-34.94,8.08,63,63,0,0,0-26.79,28.8,64,64,0,0,0-5.86,25c-.31,7.65,1.21,15,3.18,22.27-8,.44-16.06.92-24.09,1.32-9.53.47-19.07.84-28.61,1.3q-15.09.74-30.2,1.54c-5.8.3-11.6.63-17.4.94-.88-1-1.69-2.14-2.64-3.11-1.78-1.82-3.65-3.57-5.48-5.35,1.86-3.58,3.87-7.09,5.51-10.76.68-1.52,1.36-1.84,2.8-1.49.69.17,1.7.36,2.13,0,1.94-1.54,4.54-7.13,3.25-10.14h0l-.41-1.59a3.59,3.59,0,0,0-3.07-3.57c-1.29-.27-2.53-.7-3.81-1-4.44-1.12-8.87-2.37-13.35-3.28-6.89-1.41-13.79-2.82-20.75-3.79-5.16-.72-10.41-.79-15.63-1.07-4.16-.22-7.8,1.68-11.56,3-4.34,1.54-8.67,2.88-13.17.56-.75-.52-1.54-1-2.27-1.58-3.12-2.39-6-5.1-9.37-7.14-6.21-3.8-13.37-5-20.37-6.32s-14.18-2.13-21.29-3c-5.22-.66-10.47-1.1-15.7-1.62a3.15,3.15,0,0,0-3.22,1.6c-2.39,3.54-2.27,7.24-1.25,11.13.37,1.42,1,2.18,2.55,2.22s1.89.71,2,2.23c.36,3.92,1.06,7.81,1.62,11.7-3.15,1.46-6.28,2.94-9.45,4.35a5.2,5.2,0,0,0-2.21,8c.47.12,1,.49,1.38.33,4.35-2.05,8.65-4.19,13-6.3a29.61,29.61,0,0,0,8.77,10l.41.32a.9.9,0,0,0,.28.08l.94.71h0l1.21.8h0a4.58,4.58,0,0,0,1,.81c3.07,1.11,6.13,2.27,9.25,3.22a26.86,26.86,0,0,0,15.13,0c10.87-3,18.75-10.13,24.79-19.31,1.95-3,3.83-4.87,7.53-3.73l0,0,.81.8a56.87,56.87,0,0,0,6.76,18c3.2,5.47,7.15,10.25,12.79,13.42l1.57.84h0l1.63.77h0l.44.37h0l1.61,1.12-64.18,3.18c.15,1.31.29,2.21.34,3.12.42,9,.81,18,1.25,27,.5,10.17,1.07,20.35,1.55,30.53.23,4.73.28,9.47.51,14.2.3,6,.73,11.94,1.07,17.91q.65,11.43,1.21,22.87c.13,2.68.14,5.37.2,8a16,16,0,0,1-1.24,1.77q-10.86,12-21.75,24c-6.42,7.06-12.87,14.1-19.28,21.17-5,5.53-10,11.09-15.08,16.68.91,1,1.73,2,2.68,2.89q7.29,6.68,14.63,13.28c2.78,2.5,5.59,5,8.39,7.44,4,3.62,7.9,7.27,11.88,10.86,3.83,3.46,7.72,6.88,11.58,10.31l1.53,2.09c1.57-1.77,2.88-3.32,4.27-4.79,2.43-2.59,4.9-5.13,7.35-7.69.15,2.24.34,4.47.44,6.71.32,7.39.55,14.78.91,22.17.45,9,1,17.94,1.48,26.92.36,7.3.54,14.61.89,21.91.46,9.64,1,19.28,1.56,28.92.15,2.72.45,5.44.68,8.16l-5.83,3.58c-3.29-5.62-6.47-11.08-9.68-16.53q-8.08-13.77-16.19-27.51c-5.73-9.8-11.4-19.64-17.13-29.44-4.74-8.12-9.56-16.18-14.3-24.29s-9.41-16.27-14.16-24.38c-5.37-9.18-10.81-18.32-16.18-27.51-5.74-9.8-11.4-19.64-17.14-29.44-4.74-8.11-9.56-16.18-14.3-24.29s-9.41-16.27-14.15-24.38c-5.37-9.18-10.82-18.32-16.19-27.51-5.76-9.85-11.45-19.76-17.22-29.61-5.67-9.69-11.41-19.34-17.09-29-4.19-7.15-8.34-14.32-12.51-21.48-.06-.09-.2-.14-.3-.21v-.4c6.74-4,13.46-8,20.22-11.92,11.5-6.7,23-13.32,34.54-20,9.69-5.66,19.33-11.42,29-17.08,11.44-6.69,22.92-13.29,34.35-20,9.69-5.66,19.32-11.42,29-17.08,9.86-5.77,19.76-11.46,29.62-17.22,9-5.26,18-10.6,27-15.87,9.86-5.76,19.76-11.45,29.62-17.22,11.26-6.59,22.48-13.25,33.74-19.84,9.86-5.77,19.76-11.45,29.62-17.22s19.66-11.61,29.51-17.39c8.11-4.74,16.27-9.41,24.38-14.15q13.61-8,27.16-16,10.21-6,20.42-12c6.59-3.85,13.22-7.63,19.8-11.5,5.5-3.23,11-6.53,16.43-9.81Zm-88.47,203.66-.8-1.25,0-.3-.41-.43c-1.19-1.56-2.18-.21-3.18.26-2.26,1.05-4.48,2.18-6.71,3.28l-.79-1.08c-.64-.18-1.49-.72-1.89-.49-5.72,3.26-11.38,6.64-17,10-3.7,2.17-5.49,7.27-3,11.06,1.18,1.78,3.12,3.05,4.71,4.55,2.84,1,5.59,1.17,8.27-.55,2-1.3,4.16-2.51,6.26-3.73,3.34-2,6.72-3.86,10-5.86.68-.41,2.18-1,.37-2l-.93-1.54a13.8,13.8,0,0,1,1.61-1.36c2.36-1.47,4.75-2.88,7.35-4.45l-3.83-6.1Zm14.68-3.91c.39.24.78.7,1.16.69,3.68-.08,7.36-.15,11-.42,2.71-.21,5.41-.33,7.83-2.1,3.44-2.52,4.44-8.54,1.18-11.83-2.21-2.64-4.84-4.24-8.49-4-4.86.35-9.73.49-14.69.73.1,1,.19,1.75.27,2.52l.26,5.93c.12,2,.25,4,.37,6C1470.87,608.42,1469.92,609.81,1471.77,610Z"/><path class="cls-8" d="M1406.15,655.06c5.8-.31,11.6-.64,17.4-.94q15.1-.78,30.2-1.54c9.54-.46,19.08-.83,28.61-1.3,8-.4,16.06-.88,24.09-1.32l2.46,5.77A7.74,7.74,0,0,1,1508,657c-2.91,2.81-4.09,7.24-1.54,11.09l1.78,2.78a6.11,6.11,0,0,0,5.35,3.15,44.77,44.77,0,0,0,6.44-1l4.83,5.1c.66.64,1.27,1.34,2,1.91a67.48,67.48,0,0,0,15.77,9.81,2.41,2.41,0,0,1,1.26,1.66c.34,4.54.57,9.08.8,13.63q1,19.8,2,39.59,1,20.94,2,41.87c.32,6.78.58,13.56.92,20.34q.95,19.29,2,38.57c.2,3.88.5,7.76.75,11.64q-19.71,11.5-39.41,23c-11.93,7-23.82,14-35.75,21-13.65,8-27.33,15.92-41,23.9-11.31,6.62-22.58,13.29-33.89,19.9-13,7.62-26.08,15.17-39.11,22.78-9.65,5.64-19.26,11.36-28.91,17-7,4.1-14.1,8.13-21.16,12.19-.23-2.72-.53-5.44-.68-8.16-.55-9.64-1.1-19.28-1.56-28.92-.35-7.3-.53-14.61-.89-21.91-.44-9-1-17.94-1.48-26.92-.36-7.39-.59-14.78-.91-22.17-.1-2.24-.29-4.47-.44-6.71,2.29-2.67,4.54-5.39,6.89-8,4.66-5.17,9.38-10.27,14.06-15.42q10.59-11.64,21.16-23.3,9.69-10.62,19.41-21.21c.61-.66,1.11-1.42,1.71-2.18l-1.44-1.25c-.67-.92-1.33-1.85-2-2.77,1.73-1.87,3.61-3.62,5.14-5.63a8.09,8.09,0,0,0,1.81-7c-.38-1.58-.83-3.15-1.27-4.79a5.08,5.08,0,0,1,.85-.4,49.25,49.25,0,0,0,20.31-10.44c5.58-4.85,9.23-10.84,9.91-18.39.15-1.73,1.1-2.25,2.7-1.46,1.23.61,2.43,1.3,3.66,1.92,5.61,2.8,11.12.24,12.4-5.79a27.19,27.19,0,0,0,.25-3.49c3.7,2.59,7.38,4.13,11.32,2s5.08-5.89,4-10.32a53.89,53.89,0,0,0,5.79,2.15,7.4,7.4,0,0,0,8.28-3.28,7.59,7.59,0,0,0,.24-8.89l-.43-.88a7.09,7.09,0,0,1,1.58-.69c1.85-.29,3.72-.49,5.58-.72,1.56.22,3.11.48,4.67.64.63.07,1.77.12,1.86-.12.53-1.5,1.71-.84,2.65-1l1.42,1.31.88,1.27,10-3.37-3.09-1.18a7,7,0,0,0,1.38-.1c.25-.06.43-.37.64-.56l-.89-.55v-.41c.16-.07.32-.14.6-.24l-.61-.15-7.09-6.6c-1.54,1-3.21,2-5.31,1l.28-1.17-1.39-.11-.82-.32h0l-.22-3.16a3.5,3.5,0,0,1,1.07-.45c6.51-.41,13-.84,19.53-1.16,4.78-.24,9.56-.31,14.33-.53,7-.33,14-.73,21-1.11a9.61,9.61,0,0,0,1.77-.21c2.23-.53,3-1.39,2.73-3.17-.29-2-1.8-2.26-3.42-2.18-4.68.24-9.36.54-14,.77q-12.57.63-25.14,1.2c-7.06.32-14.12.58-21.18.87-1.18-.7-2.35-1.41-3.54-2.09q-5.85-3.35-11.72-6.67a14.75,14.75,0,0,1,2.26-.43c5-.24,10-.38,15-.64,5.41-.27,10.81-.67,16.22-1s10.93-.54,16.4-.8q12.65-.6,25.28-1.2c2.23-.1,3.21-1,3.16-2.89-.06-1.68-1.27-2.76-3.25-2.67-3.82.2-7.64.54-11.46.74-8.32.43-16.64.8-25,1.21L1459.91,696l-24.36,1.22-16.32-8.81a4.46,4.46,0,0,1,1.07-.35c4.56-.28,9.12-.56,13.68-.79q12.48-.63,25-1.2c6.48-.3,13-.56,19.45-.83,3.41-.14,6.83-.22,10.24-.43,5.41-.33,10.81-.82,16.21-1.1,5-.25,9.9-.29,14.85-.47,2.1-.08,3.17-1.17,3.14-3s-.92-2.63-3.21-2.54c-5.2.2-10.39.52-15.58.77q-12.75.63-25.51,1.22c-5.2.25-10.41.52-15.61.76-6.15.29-12.3.59-18.45.86-4.15.18-8.3.25-12.45.48-5.54.3-11.07.77-16.61,1-5.15.27-10.3.33-15.44.6-7.79.41-15.57,1-23.36,1.37q-12.68.68-25.35,1.24c-7.06.31-14.13.52-21.19.85-3.1.15-6.19.57-9.29.67a2.52,2.52,0,0,0-2.72,2.92c.07,1.66,1.33,2.47,3.06,2.38,2.64-.14,5.28-.28,7.92-.4,5.62-.27,11.24-.56,16.86-.8,7.28-.31,14.55-.58,21.83-.86,1.21,0,2.43,0,3.65,0-2.52,1.07-3.71,3.27-4.8,5.56a5.49,5.49,0,0,0-1.68-.63c-9.32-.2-18.64-.38-28-.47a18.55,18.55,0,0,0-3.89.75l-2.88,1.58-3.74.3c-.17.83-.34,1.68-.51,2.54l-.46,2c-1.16.13-2.32.32-3.5.38-2,.11-3.23,1.13-3.19,2.75,0,1.78,1.28,2.88,3.31,2.82q5-.13,9.89-.41a3.43,3.43,0,0,0,1.15-.54c3.84,1.06,7.68,2.08,11.5,3.2,5.08,1.49,10.13,3.07,15.2,4.61l-.41,1.15c-.53,0-1.06,0-1.59,0-9,.41-18,.8-26.94,1.24-3,.15-5.9.37-8.85.64-1.79.16-2.53,1.35-2.43,3a3.12,3.12,0,0,0,3.31,2.51c2.93-.19,5.86-.47,8.8-.62,8.58-.43,17.16-.81,25.74-1.22q-1.76,5-3.53,10.06c-.66,0-1.32-.09-2-.06q-11.1.57-22.18,1.17c-2.32.13-4.63.23-6.93.42a2.58,2.58,0,0,0-2.46,2.43,2.18,2.18,0,0,0,1.79,2.67,22.75,22.75,0,0,0,4.67.06q12.68-.55,25.34-1.17c-.24.68-.46,1.37-.72,2-1.12,2.84-1.77,6-3.49,8.45-3,4.18-6.62,7.88-10,11.78-5-1.17-9,.36-12.09,4.39a40.86,40.86,0,0,1-3.59,3.62,8.33,8.33,0,0,0-1.78-1.45,2,2,0,0,0-1.8.1c-3,3.17-5.92,6.46-8.9,9.68-2.52,2.72-5.1,5.38-7.65,8.07-.06-2.68-.07-5.37-.2-8q-.56-11.43-1.21-22.87c-.34-6-.77-11.94-1.07-17.91-.23-4.73-.28-9.47-.51-14.2-.48-10.18-1-20.36-1.55-30.53-.44-9-.83-18-1.25-27-.05-.91-.19-1.81-.34-3.12l64.18-3.18a29.43,29.43,0,0,0,4.18,1c3.87.38,7.75.8,11.63.81,4.27,0,8.15-1.77,12-3.35l10.09-.43,5.94,6c.39.31.79.61,1.21.93,1.75-2,2.39-4.11,1.14-6.5Z"/><path class="cls-9" d="M1552.32,857.09c-.25-3.88-.55-7.76-.75-11.64q-1-19.28-2-38.57c-.34-6.78-.6-13.56-.92-20.34q-1-20.94-2-41.87-1-19.78-2-39.59c-.23-4.55-.46-9.09-.8-13.63a2.41,2.41,0,0,0-1.26-1.66,67.48,67.48,0,0,1-15.77-9.81,27.29,27.29,0,0,1-2-1.91,10.21,10.21,0,0,1,1.89.8c3.06,2.09,5.91,4.58,9.17,6.31a63.81,63.81,0,0,0,65.66-2.35,62.47,62.47,0,0,0,14.5-12.93,54.68,54.68,0,0,0,9.41-15.5,98.23,98.23,0,0,0,4.29-15.17,52.76,52.76,0,0,0,.31-17.33c-.43-3.26-1.08-6.49-1.63-9.73a75.51,75.51,0,0,1,2.3,7.66,58.53,58.53,0,0,1-.07,23.62c-2.19,10-6,19.32-12.55,27.41A65,65,0,0,1,1605.54,683,63,63,0,0,1,1573,694.9a58.34,58.34,0,0,1-20.88-2c-2-.59-4-1.08-6.31-1.68.2,4.41.38,8.77.6,13.13.55,11.44,1.14,22.89,1.69,34.33.5,10.57,1,21.15,1.47,31.72.27,5.52.62,11,.91,16.55q.63,11.91,1.24,23.8c.35,7.2.65,14.4,1,21.6.36,7,.79,14,1.15,21a21.32,21.32,0,0,1-.2,2.75Z"/><path class="cls-10" d="M1628.5,612.17c.55,3.24,1.2,6.47,1.63,9.73a52.76,52.76,0,0,1-.31,17.33,98.23,98.23,0,0,1-4.29,15.17,54.68,54.68,0,0,1-9.41,15.5,62.47,62.47,0,0,1-14.5,12.93,63.81,63.81,0,0,1-65.66,2.35c-3.26-1.73-6.11-4.22-9.17-6.31a10.21,10.21,0,0,0-1.89-.8l-4.84-5.1-1.21-2.06a1.5,1.5,0,0,1,.24-.31c4.79-2.81,9.59-5.61,14.37-8.45a1.77,1.77,0,0,1,2.43.42,44.45,44.45,0,0,0,16.95,10.19,45.52,45.52,0,0,0,43.06-8.13,41.45,41.45,0,0,0,12.92-17.09,46.86,46.86,0,0,0,3.63-16.54,58.18,58.18,0,0,0-.8-10.21,34.81,34.81,0,0,0-5.53-14.08c-1.57-3.79-4.41-6.65-7.17-9.53a42.24,42.24,0,0,0-16.86-10.57,43.5,43.5,0,0,0-24-1.6c-11.38,2.52-20.9,8.25-27.77,17.9a44.34,44.34,0,0,0-8.7,25.83,46.12,46.12,0,0,0,3.44,18.1c-1.22.72-2.4,1.43-3.6,2.11l-11.38,6.41a4.07,4.07,0,0,0-.07-.79,65.76,65.76,0,0,1-2-25.32,64.46,64.46,0,0,1,6.81-21.9c5-10.06,12.68-17.89,21.92-24.07a59.23,59.23,0,0,1,21.34-8.74,63.52,63.52,0,0,1,20.69-.95,69.77,69.77,0,0,1,21,6.29c7.42,3.5,13.61,8.71,19.23,14.62.47.49,1,.94,1.48,1.41h0l1.12.9a56.52,56.52,0,0,1,5.95,12.69c.16.4.32.8.47,1.21v0c.15.43.29.87.44,1.3Z"/><path class="cls-11" d="M1302.19,784.15c2.55-2.69,5.13-5.35,7.65-8.07,3-3.22,5.88-6.51,8.9-9.68a2,2,0,0,1,1.8-.1,8.33,8.33,0,0,1,1.78,1.45,4.94,4.94,0,0,0,.64,1c3.83,3.48,7.7,6.92,11.51,10.42,3.31,3,6.56,6.15,9.84,9.23-2,2.35-3.93,4.77-6,7.06-7.25,8-14.57,16-21.83,24-3.89,4.3-7.71,8.68-11.6,13s-7.55,8.31-11.33,12.45c-6.54,7.17-13.12,14.31-19.6,21.54a45.49,45.49,0,0,0-3.41,4.94c-2.8-2.48-5.61-4.94-8.39-7.44q-7.34-6.61-14.63-13.28c-1-.87-1.77-1.9-2.68-2.89,5.05-5.59,10.05-11.15,15.08-16.68,6.41-7.07,12.86-14.11,19.28-21.17q10.89-12,21.75-24A16,16,0,0,0,1302.19,784.15Z"/><path class="cls-12" d="M1270.54,871.35a45.49,45.49,0,0,1,3.41-4.94c6.48-7.23,13.06-14.37,19.6-21.54,3.78-4.14,7.58-8.28,11.33-12.45s7.71-8.69,11.6-13c7.26-8,14.58-16,21.83-24,2.07-2.29,4-4.71,6-7.06a7.07,7.07,0,0,1,1.38.76q9.72,8.91,19.4,17.85l1.86,1,2,2.77c-1.6,1.65-3.23,3.25-4.77,5q-11.75,12.85-23.43,25.75-10.83,12-21.62,23.95c-6.37,7.05-12.72,14.11-19.14,21.11-1.9,2.08-4,4-6,6-3.86-3.43-7.75-6.85-11.58-10.31C1278.44,878.62,1274.5,875,1270.54,871.35Z"/><path class="cls-13" d="M1330,613.48c4.5,2.32,8.83,1,13.17-.56,3.76-1.34,7.4-3.24,11.56-3,5.22.28,10.47.35,15.63,1.07,7,1,13.86,2.38,20.75,3.79,4.48.91,8.91,2.16,13.35,3.28,1.28.31,2.52.74,3.81,1a3.59,3.59,0,0,1,3.07,3.57c.13.53.27,1.06.41,1.59h0a17.46,17.46,0,0,1-3,8.37c-.65.9-1.21,1.36-2.43.88s-2.54-.56-3.33,1.15c-1.79,3.88-3.75,7.69-5.64,11.53l-3.56,4c-1.43,1.06-2.81,2.19-4.31,3.15-7.4,4.78-15.47,5.86-24,4.22-2.25-.43-4.5-.92-6.75-1.38h0l-.44-.37h0l-1.63-.77h0l-1.57-.84c-5.64-3.17-9.59-7.95-12.79-13.42a56.87,56.87,0,0,1-6.76-18l-.81-.8h0l-2.75-1.32Zm12.75,13.95h0l.35,1.22a25.48,25.48,0,0,0,.86,3,44.05,44.05,0,0,0,13.45,18.16,21.37,21.37,0,0,0,15.22,4.62c6.62-.57,12.76-2.57,17.89-7q1.63-2.24,3.25-4.48a64.62,64.62,0,0,0,3.09-7.3c.47-1.6.14-3.44.17-5.17l-.09-1c-1-1.4-1.64-3.12-2.89-4.14-4.73-3.88-10.57-5.39-16.37-6.54s-11.48-1.52-17.23-2.2a28.48,28.48,0,0,0-12.71.92c-1.86.62-3.5,1.57-4.2,3.58a5.48,5.48,0,0,0-.81,5.59l-.07.39Zm57.29-4.75-.15.73c1.64,2,4,2.42,7.07,1.35l.12-.59Z"/><path class="cls-14" d="M1620.53,595.91c-.49-.47-1-.92-1.48-1.41-5.62-5.91-11.81-11.12-19.23-14.62a69.77,69.77,0,0,0-21-6.29,63.52,63.52,0,0,0-20.69.95,59.23,59.23,0,0,0-21.34,8.74c-9.24,6.18-16.89,14-21.92,24.07a64.46,64.46,0,0,0-6.81,21.9,65.76,65.76,0,0,0,2,25.32,4.07,4.07,0,0,1,.07.79l-1.18.37-2.46-5.77c-2-7.29-3.49-14.62-3.18-22.27a64,64,0,0,1,5.86-25,63,63,0,0,1,26.79-28.8,63.73,63.73,0,0,1,34.94-8.08,62.17,62.17,0,0,1,14.85,2.84,63.55,63.55,0,0,1,33.93,24.94A9.93,9.93,0,0,1,1620.53,595.91Z"/><path class="cls-15" d="M1330,613.48c.66,2.37,1.32,4.73,2,7.1-1.19.42-3,.48-3.46,1.31a59,59,0,0,1-12,14.1,38.57,38.57,0,0,1-12.7,7.38c-8.49,2.82-16.71,1.6-24.75-1.91a11.8,11.8,0,0,0-2.09-.5h0l-1.21-.8h0l-.94-.71a.9.9,0,0,1-.28-.08l-.41-.32a29.61,29.61,0,0,1-8.77-10c-.26-.28-.51-.57-.76-.85l-1.93-5.52c-.56-3.89-1.26-7.78-1.62-11.7-.13-1.52-.63-2.2-2-2.23s-2.18-.8-2.55-2.22c-1-3.89-1.14-7.59,1.25-11.13a3.15,3.15,0,0,1,3.22-1.6c5.23.52,10.48,1,15.7,1.62,7.11.89,14.25,1.7,21.29,3s14.16,2.52,20.37,6.32c3.33,2,6.25,4.75,9.37,7.14C1328.41,612.46,1329.2,613,1330,613.48Zm-8.37,3.56a7,7,0,0,0-3.74-5.32,55.81,55.81,0,0,0-10.92-4.49c-6.43-1.6-13-2.63-19.56-3.74a29.84,29.84,0,0,0-13.16.45c-2.37.68-4.89,1.31-6,3.94a4.28,4.28,0,0,0-.78,1.27c-.45,2.23-.8,4.47-1.19,6.7,0,3.64.23,7.24,2.38,10.39l.45.85a27,27,0,0,0,10.15,10c6.11,3.68,12.49,4.89,19.42,2.79,6.76-2.06,12.38-6,17.45-10.73,3.16-3,5.75-6.34,5.88-11C1321.81,617.77,1321.7,617.41,1321.58,617Zm-61.1-17.33c2.34,2,5.25,2.34,7.21.85A7.16,7.16,0,0,0,1260.48,599.71Z"/><path class="cls-9" d="M1294,892.52c2-2,4.08-3.91,6-6,6.42-7,12.77-14.06,19.14-21.11q10.82-12,21.62-23.95,11.68-12.9,23.43-25.75c1.54-1.7,3.17-3.3,4.77-5l1.44,1.25c-.6.76-1.1,1.52-1.71,2.18q-9.69,10.62-19.41,21.21-10.6,11.64-21.16,23.3c-4.68,5.15-9.4,10.25-14.06,15.42-2.35,2.61-4.6,5.33-6.89,8-2.45,2.56-4.92,5.1-7.35,7.69-1.39,1.47-2.7,3-4.27,4.79Z"/><path class="cls-16" d="M1428,639.45c-1.59-1.5-3.53-2.77-4.71-4.55-2.5-3.79-.71-8.89,3-11.06,5.67-3.33,11.33-6.71,17-10,.4-.23,1.25.31,1.89.49.1.35.21.71.32,1.06-1.47.81-3,1.59-4.4,2.44-4.43,2.59-8.83,5.23-13.25,7.83a5.58,5.58,0,0,0-2.31,7.73c2,3.57,5.19,4.44,8.73,2.38l17.2-10h.5l.93,1.54a15.34,15.34,0,0,1-2,1.76c-3.65,2.22-7.35,4.37-11,6.53S1432.54,640.14,1428,639.45Z"/><path class="cls-17" d="M1470.69,607.53c-.12-2-.25-4-.37-6l20.54-1.17.18,0c-.37,4.93-3.12,6.3-6.52,6.56C1479.92,607.24,1475.3,607.33,1470.69,607.53Z"/><path class="cls-18" d="M1490.86,600.35l-20.54,1.17c-.09-2-.18-3.95-.26-5.93,4.83-.29,9.66-.63,14.5-.84A5.92,5.92,0,0,1,1490.86,600.35Z"/><path class="cls-12" d="M1393.7,650.14l3.56-4,.77.45c1.83,1.78,3.7,3.53,5.48,5.35,1,1,1.76,2.07,2.64,3.11.11.21.21.43.32.64-.06,2.16-.1,4.33-2.35,5.57l-5.94-6q-2-2.18-4.06-4.33Z"/><path class="cls-19" d="M1262.67,622.68q1,2.76,1.93,5.52c-2.79,1.28-5.6,2.5-8.35,3.85-1.8.89-3.49,2-5.24,3a5.2,5.2,0,0,1,2.21-8C1256.39,625.62,1259.52,624.14,1262.67,622.68Z"/><path class="cls-9" d="M1277,641a11.8,11.8,0,0,1,2.09.5c8,3.51,16.26,4.73,24.75,1.91a38.57,38.57,0,0,0,12.7-7.38,59,59,0,0,0,12-14.1c.51-.83,2.27-.89,3.46-1.31l2.75,1.32c-3.7-1.13-5.58.78-7.53,3.74-6,9.18-13.92,16.3-24.79,19.31a26.86,26.86,0,0,1-15.13,0c-3.12-1-6.18-2.11-9.25-3.22A4.58,4.58,0,0,1,1277,641Z"/><path class="cls-20" d="M1490.86,600.35a5.92,5.92,0,0,0-6.3-5.6c-4.84.21-9.67.55-14.5.84-.08-.77-.17-1.54-.27-2.52,5-.24,9.83-.38,14.69-.73,3.65-.27,6.28,1.33,8.49,4,.26,1.33.52,2.67.79,4H1491Z"/><path class="cls-21" d="M1491,600.33h2.72c.6,5-4,8.81-8.72,8.86-4.42,0-8.85.5-13.27.78-1.85-.16-.9-1.55-1.08-2.44,4.61-.2,9.23-.29,13.83-.64C1487.92,606.63,1490.67,605.26,1491,600.33Z"/><path class="cls-9" d="M1452,625.78h-.5l-3-5.12a.46.46,0,0,0,.08-.3c2.39-1.47,4.81-2.89,7.13-4.46.62-.42.92-1.33,1.37-2l3.83,6.1c-2.6,1.57-5,3-7.35,4.45A13.8,13.8,0,0,0,1452,625.78Zm4-6.23c-.76-.58-1.17-1.09-1.66-1.19-.32-.07-.76.48-1.15.75a7.71,7.71,0,0,0,1.38,1.36C1454.69,620.56,1455.24,620,1456,619.55Z"/><path class="cls-22" d="M1457.09,613.87c-.45.69-.75,1.6-1.37,2-2.32,1.57-4.74,3-7.13,4.46q-1.36-2.4-2.75-4.8l.12-.11c2.23-1.1,4.45-2.23,6.71-3.28,1-.47,2-1.82,3.18-.26l.41.43,0,.3c.27.41.54.83.8,1.25Z"/><path class="cls-9" d="M1393.7,650.14l.42.79-6,4.76c-3.89,1.58-7.77,3.37-12,3.35-3.88,0-7.76-.43-11.63-.81a29.43,29.43,0,0,1-4.18-1l-1.61-1.12c2.25.46,4.5,1,6.75,1.38,8.54,1.64,16.61.56,24-4.22C1390.89,652.33,1392.27,651.2,1393.7,650.14Z"/><path class="cls-9" d="M1471.77,610c4.42-.28,8.85-.74,13.27-.78,4.7-.05,9.32-3.9,8.72-8.86-.27-1.34-.53-2.68-.79-4,3.26,3.28,2.26,9.3-1.18,11.82-2.42,1.77-5.12,1.89-7.83,2.1-3.67.27-7.35.34-11,.42C1472.55,610.67,1472.16,610.21,1471.77,610Z"/><path class="cls-9" d="M1398,646.6l-.77-.45c1.89-3.84,3.85-7.65,5.64-11.53.79-1.71,2-1.65,3.33-1.15s1.78,0,2.43-.88a17.46,17.46,0,0,0,3-8.37c1.3,3-1.3,8.6-3.24,10.14-.43.35-1.44.16-2.13,0-1.44-.35-2.12,0-2.8,1.49C1401.9,639.51,1399.89,643,1398,646.6Z"/><path class="cls-9" d="M1428,639.45c4.59.69,8.2-1.68,11.88-3.84s7.38-4.31,11-6.53a15.34,15.34,0,0,0,2-1.76c1.81,1,.31,1.58-.37,2-3.32,2-6.7,3.9-10,5.86-2.1,1.22-4.21,2.43-6.26,3.73C1433.54,640.62,1430.79,640.47,1428,639.45Z"/><path class="cls-9" d="M1251,635c1.75-1,3.44-2.08,5.24-3,2.75-1.35,5.56-2.57,8.35-3.85.25.28.5.57.76.85-4.32,2.11-8.62,4.25-13,6.3C1252.06,635.51,1251.48,635.14,1251,635Z"/><path class="cls-14" d="M1621.65,596.8l-1.12-.9Z"/><path class="cls-9" d="M1356.58,655l1.63.77Z"/><path class="cls-9" d="M1355,654.16l1.57.84Z"/><path class="cls-9" d="M1275.75,640.16l1.21.8Z"/><path class="cls-22" d="M1445.49,615.42c-.11-.35-.22-.71-.32-1.06l.79,1.08-.12.11A.93.93,0,0,1,1445.49,615.42Z"/><path class="cls-9" d="M1457.09,613.88c-.26-.42-.53-.84-.8-1.25C1456.56,613,1456.83,613.46,1457.09,613.88Z"/><path class="cls-9" d="M1628.5,612c-.15-.43-.29-.87-.44-1.3C1628.21,611.11,1628.35,611.55,1628.5,612Z"/><path class="cls-9" d="M1411.7,624.21c-.14-.53-.28-1.06-.41-1.59C1411.42,623.15,1411.56,623.68,1411.7,624.21Z"/><path class="cls-9" d="M1274.82,639.46l.94.71Z"/><path class="cls-9" d="M1334.67,621.89l.81.8Z"/><path class="cls-9" d="M1628.07,610.7c-.15-.41-.31-.81-.47-1.21C1627.76,609.89,1627.92,610.29,1628.07,610.7Z"/><path class="cls-9" d="M1358.2,655.77l.44.37Z"/><path class="cls-9" d="M1274.13,639.06l.41.32Z"/><path class="cls-9" d="M1456.26,612.33l-.41-.43Z"/><path class="cls-23" d="M1606.12,606.71a34.81,34.81,0,0,1,5.53,14.08,58.18,58.18,0,0,1,.8,10.21,46.86,46.86,0,0,1-3.63,16.54,41.45,41.45,0,0,1-12.92,17.09,45.52,45.52,0,0,1-43.06,8.13,44.45,44.45,0,0,1-16.95-10.19,1.77,1.77,0,0,0-2.43-.42c-4.78,2.84-9.58,5.64-14.37,8.45a1.5,1.5,0,0,0-.24.31c-2.21,1-4.48,1.76-6.94,1.15-1.24-.3-2.43-.79-3.64-1.19l-1.78-2.78a14.73,14.73,0,0,1,1.8-1.48c6-3.52,11.94-7.05,18-10.46,1.69-1,2.86-1.87,1.6-3.84.65-.41,1.13-.76,1.66-1,2-1.06,4.06-2.09,6.1-3.13.16.12.37.19.47.35,6.4,10.34,15.83,16,27.78,17.11s22.17-3.22,30.33-12.16a35.48,35.48,0,0,0,8.39-30.86,31.45,31.45,0,0,0-4.31-11.18l-.07-.72a14.39,14.39,0,0,0,1.59-.59C1601.92,609,1604,607.85,1606.12,606.71Z"/><path class="cls-24" d="M1535.62,648.15c-2,1-4.08,2.07-6.1,3.13-.53.27-1,.62-1.66,1,1.26,2,.09,2.88-1.6,3.84-6,3.41-12,6.94-18,10.46a14.73,14.73,0,0,0-1.8,1.48c-2.55-3.85-1.37-8.28,1.54-11.09a7.74,7.74,0,0,0,.88-1.27l1.18-.37,11.38-6.41c1.2-.68,2.38-1.39,3.6-2.11a46.12,46.12,0,0,1-3.44-18.1,44.34,44.34,0,0,1,8.7-25.83c6.87-9.65,16.39-15.38,27.77-17.9a43.5,43.5,0,0,1,24,1.6A42.24,42.24,0,0,1,1599,597.18c2.76,2.88,5.6,5.74,7.17,9.53-2.11,1.14-4.2,2.28-6.32,3.39a14.39,14.39,0,0,1-1.59.59c-2.54-2.93-4.85-6.09-7.66-8.73a32.35,32.35,0,0,0-20.51-8.71c-13.49-.9-24.54,4.11-32.61,15.06a36,36,0,0,0-1.8,39.46A.55.55,0,0,0,1535.62,648.15Z"/><path class="cls-25" d="M1419.23,688.38l16.32,8.81,9.83,5.23q5.86,3.33,11.72,6.67c1.19.68,2.36,1.39,3.54,2.09l2,3.12c-.12,1.86-.25,3.72-.38,5.58l-7.55-1.2-2.8-.39-4-1.23a19.7,19.7,0,0,0-1.61-1.15c-10.12-5.74-20.28-11.41-30.33-17.26a10,10,0,0,0-6.22-1.43l-22.43,2c-1.89.17-3.65.46-4.08,2.84a19.72,19.72,0,0,1-1.09,3.13l-14-2.39v-2.38l-1.93-.09-.43-1.45.77-1.64,0-.89c1.09-2.29,2.28-4.49,4.8-5.56,4.75-.63,9.5-1.3,14.26-1.9,8.43-1.07,16.85-2.19,25.29-3.08,1.58-.17,3.3.49,4.89,1A23.39,23.39,0,0,1,1419.23,688.38Z"/><path class="cls-26" d="M1419.23,688.38a23.39,23.39,0,0,0-3.39-1.63c-1.59-.49-3.31-1.15-4.89-1-8.44.89-16.86,2-25.29,3.08-4.76.6-9.51,1.27-14.26,1.9-1.22,0-2.44,0-3.65,0-7.28.28-14.55.55-21.83.86-5.62.24-11.24.53-16.86.8-2.64.12-5.28.26-7.92.4-1.73.09-3-.72-3.06-2.38a2.52,2.52,0,0,1,2.72-2.92c3.1-.1,6.19-.52,9.29-.67,7.06-.33,14.13-.54,21.19-.85q12.67-.57,25.35-1.24c7.79-.42,15.57-1,23.36-1.37,5.14-.27,10.29-.33,15.44-.6,5.54-.28,11.07-.75,16.61-1,4.15-.23,8.3-.3,12.45-.48,6.15-.27,12.3-.57,18.45-.86,5.2-.24,10.41-.51,15.61-.76q12.77-.6,25.51-1.22c5.19-.25,10.38-.57,15.58-.77,2.29-.09,3.18.71,3.21,2.54s-1,2.94-3.14,3c-5,.18-9.9.22-14.85.47-5.4.28-10.8.77-16.21,1.1-3.41.21-6.83.29-10.24.43-6.48.27-13,.53-19.45.83q-12.49.57-25,1.2c-4.56.23-9.12.51-13.68.79A4.46,4.46,0,0,0,1419.23,688.38Z"/><path class="cls-17" d="M1365.09,807q-9.69-8.93-19.4-17.85a7.07,7.07,0,0,0-1.38-.76c-3.28-3.08-6.53-6.19-9.84-9.23-3.81-3.5-7.68-6.94-11.51-10.42a4.94,4.94,0,0,1-.64-1,40.86,40.86,0,0,0,3.59-3.62c3.14-4,7.11-5.56,12.09-4.39,1.32,1,2.69,1.84,3.93,2.87,2,1.67,4,3.44,5.92,5.16.45.45.89.93,1.37,1.36,4.75,4.29,9.54,8.55,14.27,12.87,2.53,2.33,5,4.77,7.44,7.16a9.83,9.83,0,0,1,.21,11.15C1369.56,802.8,1367.14,804.76,1365.09,807Z"/><path class="cls-25" d="M1347.85,767.77c-2-1.72-3.9-3.49-5.92-5.16-1.24-1-2.61-1.92-3.93-2.87,3.36-3.9,7-7.6,10-11.78,1.72-2.42,2.37-5.61,3.49-8.45.26-.67.48-1.36.72-2q.88-2.76,1.75-5.52,1.77-5,3.53-10.06c.66-1.86,1.31-3.71,2-5.57.14-.39.27-.77.41-1.15l.83-.93,4.85,1.17c.17-.77.3-1.38.43-2l11.84,2c-1,2.82-2,5.67-3.11,8.47-2.38,6-4.78,12.05-7.27,18-1.12,2.7-2,5.69-3.8,7.88-4.52,5.49-9.51,10.6-14.29,15.88A18.76,18.76,0,0,0,1347.85,767.77Z"/><path class="cls-26" d="M1445.38,702.42l-9.83-5.23,24.36-1.22,24.08-1.19c8.32-.41,16.64-.78,25-1.21,3.82-.2,7.64-.54,11.46-.74,2-.09,3.19,1,3.25,2.67,0,1.91-.93,2.79-3.16,2.89q-12.64.58-25.28,1.2c-5.47.26-10.94.5-16.4.8s-10.81.69-16.22,1c-5,.26-10,.4-15,.64A14.75,14.75,0,0,0,1445.38,702.42Z"/><path class="cls-26" d="M1462.62,714.3l-2-3.12c7.06-.29,14.12-.55,21.18-.87q12.57-.55,25.14-1.2c4.68-.23,9.36-.53,14-.77,1.62-.08,3.13.18,3.42,2.18.26,1.78-.5,2.64-2.73,3.17a9.61,9.61,0,0,1-1.77.21c-7,.38-14,.78-21,1.11-4.77.22-9.55.29-14.33.53-6.51.32-13,.75-19.53,1.16a3.5,3.5,0,0,0-1.07.45C1463.56,716.2,1463.09,715.25,1462.62,714.3Z"/><path class="cls-9" d="M1365.09,807c2.05-2.2,4.47-4.16,6.05-6.65a9.83,9.83,0,0,0-.21-11.15c.2-.16.38-.42.61-.48,8.49-2.26,16.21-5.93,22.55-12.15a25.83,25.83,0,0,0,8.05-15.45c.16-1.21-.05-2.73,1.54-3.34l2.9,1.16A36.59,36.59,0,0,0,1412,761a7.69,7.69,0,0,0,9.18-7.46V751c3.85,2.24,7.48,4.18,11.57,1.79s4.92-6,3.94-10.58c1,.59,1.69,1,2.37,1.36,4.92,2.59,9.47,1.55,12-2.7a10.29,10.29,0,0,0,1.1-6.52l.1-.08a7.59,7.59,0,0,1-.24,8.89,7.4,7.4,0,0,1-8.28,3.28,53.89,53.89,0,0,1-5.79-2.15c1.09,4.43.1,8.13-4,10.32s-7.62.57-11.32-2a27.19,27.19,0,0,1-.25,3.49c-1.28,6-6.79,8.59-12.4,5.79-1.23-.62-2.43-1.31-3.66-1.92-1.6-.79-2.55-.27-2.7,1.46-.68,7.55-4.33,13.54-9.91,18.39a49.25,49.25,0,0,1-20.31,10.44,5.08,5.08,0,0,0-.85.4c.44,1.64.89,3.21,1.27,4.79a8.09,8.09,0,0,1-1.81,7c-1.53,2-3.41,3.76-5.14,5.63Z"/><path class="cls-21" d="M1366,713.42c-.13.61-.26,1.22-.43,2l-4.85-1.17c-.1-.08-.18-.22-.29-.25-8.21-2.51-16.41-5-24.64-7.49-2.82-.84-5.7-1.47-8.55-2.2-.61-.61-2.1-.45-1.71-1.94.16-.66.31-1.32.46-2,.85.08,1.71.1,2.54.24,3.16.56,6.3,1.17,9.46,1.74l15.85,2.83c4.4.78,8.78,1.58,13.17,2.37l0,.05Z"/><path class="cls-26" d="M1359.43,716.32c-.65,1.86-1.3,3.71-2,5.57-8.58.41-17.16.79-25.74,1.22-2.94.15-5.87.43-8.8.62a3.12,3.12,0,0,1-3.31-2.51c-.1-1.67.64-2.86,2.43-3,3-.27,5.9-.49,8.85-.64,9-.44,18-.83,26.94-1.24C1358.37,716.29,1358.9,716.32,1359.43,716.32Z"/><path class="cls-20" d="M1367,707.56c-4.39-.79-8.77-1.59-13.17-2.37l-15.85-2.83c-3.16-.57-6.3-1.18-9.46-1.74-.83-.14-1.69-.16-2.54-.24.17-.86.34-1.71.51-2.54l3.74-.3,7.39.53a2.86,2.86,0,0,0,.85.37c4,.28,8,.53,12,.8l15.85,1,1.93.09v2.38Q1367.57,705.16,1367,707.56Z"/><path class="cls-26" d="M1353.94,732q-.87,2.76-1.75,5.52-12.68.6-25.34,1.17a22.75,22.75,0,0,1-4.67-.06,2.18,2.18,0,0,1-1.79-2.67,2.58,2.58,0,0,1,2.46-2.43c2.3-.19,4.61-.29,6.93-.42q11.09-.59,22.18-1.17C1352.62,731.86,1353.28,731.93,1353.94,732Z"/><path class="cls-27" d="M1454.69,718.68l7.55,1.2,2,.43h0l.82.32,1.39.11-.28,1.17c-.24,1.19-.47,2.38-.7,3.57l-.39.42-11.19-2,0-.42Z"/><path class="cls-21" d="M1337.58,698.07l-7.39-.53,2.88-1.58a13.33,13.33,0,0,0,2.13.41q15.69.43,31.38.83c-.26.55-.52,1.09-.77,1.64-5.2-.19-10.4-.41-15.6-.56C1346,698.16,1341.79,698.14,1337.58,698.07Z"/><path class="cls-26" d="M1325.48,702.36c-.39,1.49,1.1,1.33,1.71,1.94-.83,1.08.14,1.08.76,1.3l5.19,1.76a3.43,3.43,0,0,1-1.15.54q-4.93.27-9.89.41c-2,.06-3.26-1-3.31-2.82,0-1.62,1.2-2.64,3.19-2.75C1323.16,702.68,1324.32,702.49,1325.48,702.36Z"/><path class="cls-28" d="M1465.09,725.9l.38-.42c2.75.66,5.48,1.35,8.24,2,1.61.35,3.26.57,4.89.84l.89.55c-.21.19-.39.5-.64.56a7,7,0,0,1-1.38.1l-7.81,3.28-1.42-1.31c-.65-1.59-2-2.08-3.54-2.38Z"/><path class="cls-9" d="M1478.6,728.28c-1.63-.27-3.28-.49-4.89-.84-2.76-.61-5.49-1.3-8.24-2,.24-1.19.47-2.38.71-3.57,2.1,1,3.77,0,5.31-1l7.09,6.6,0,0v.44l0,0Z"/><path class="cls-9" d="M1333.14,707.36,1328,705.6c-.62-.22-1.59-.22-.76-1.3,2.85.73,5.73,1.36,8.55,2.2,8.23,2.45,16.43,5,24.64,7.49.11,0,.19.17.29.25l-.83.93c-5.07-1.54-10.12-3.12-15.2-4.61C1340.82,709.44,1337,708.42,1333.14,707.36Z"/><path class="cls-20" d="M1366.58,697.2q-15.69-.41-31.38-.83a13.33,13.33,0,0,1-2.13-.41,18.55,18.55,0,0,1,3.89-.75c9.32.09,18.64.27,28,.47a5.49,5.49,0,0,1,1.68.63C1366.6,696.61,1366.59,696.9,1366.58,697.2Z"/><path class="cls-9" d="M1464.7,729.08c1.51.3,2.89.79,3.54,2.38-.94.15-2.12-.51-2.65,1-.09.24-1.23.19-1.86.12-1.56-.16-3.11-.42-4.67-.64a16,16,0,0,0-2.29-.81c-2.42-.45-4.85-.81-7.27-1.2l-1.21-.06c.11-.58.23-1.15.35-1.73l1.63.2,2.81.72,11.46,2.13C1464.61,730.24,1464.65,729.66,1464.7,729.08Z"/><path class="cls-7" d="M1388.09,655.69l6-4.76q2,2.16,4.06,4.33Z"/><path class="cls-9" d="M1508.27,670.87c1.21.4,2.4.89,3.64,1.19,2.46.61,4.73-.11,6.94-1.15l1.21,2.06a44.77,44.77,0,0,1-6.44,1A6.11,6.11,0,0,1,1508.27,670.87Z"/><path class="cls-9" d="M1469.66,732.77l7.81-3.28,3.09,1.18-10,3.37Z"/><path class="cls-26" d="M1449.5,729.92c2.42.39,4.85.75,7.27,1.2a16,16,0,0,1,2.29.81c-1.86.23-3.73.43-5.58.72a7.09,7.09,0,0,0-1.58.69.55.55,0,0,1,0,.22C1451.1,732.35,1450.3,731.13,1449.5,729.92Z"/><path class="cls-9" d="M1464.24,720.31l-2-.43c.13-1.86.26-3.72.38-5.58.47,1,.94,1.9,1.4,2.85C1464.09,718.2,1464.17,719.26,1464.24,720.31Z"/><path class="cls-9" d="M1404.12,661.27c2.25-1.24,2.29-3.41,2.35-5.57,1.25,2.39.61,4.47-1.14,6.5C1404.91,661.88,1404.51,661.58,1404.12,661.27Z"/><path class="cls-9" d="M1465.07,720.63l-.82-.32Z"/><path class="cls-9" d="M1478.58,727.48l.61.15c-.28.1-.44.17-.6.24l0,0v-.44Z"/><path class="cls-9" d="M1451.9,733.34l.43.88-.1.08c-.11-.25-.22-.49-.32-.74A.55.55,0,0,0,1451.9,733.34Z"/><path class="cls-29" d="M1342.61,627l.07-.39c.37-1.57.73-3.13,1.13-4.84l29.19,9.58h0l.33.3c.6.51,1.22,1,1.8,1.55q7.68,7.08,15.32,14.17c-5.13,4.46-11.27,6.46-17.89,7a21.37,21.37,0,0,1-15.22-4.62,44.05,44.05,0,0,1-13.45-18.16,25.48,25.48,0,0,1-.86-3c-.12-.41-.24-.81-.35-1.22h0Z"/><path class="cls-19" d="M1390.47,647.42q-7.65-7.09-15.32-14.17c-.58-.54-1.2-1-1.8-1.55l-.33-.3h0c-.56-.51-1-1.24-1.7-1.48-2.77-1-5.58-1.84-8.38-2.72l-19.43-6.13c.7-2,2.34-3,4.2-3.58a28.48,28.48,0,0,1,12.71-.92c5.75.68,11.56,1.09,17.23,2.2s11.64,2.66,16.37,6.54c1.25,1,1.94,2.74,2.89,4.14l-23.23-4.35-.21.57,2.28,1c1.47,1.19,3,2.29,4.4,3.57,4.56,4.21,9.06,8.49,13.59,12.74Z"/><path class="cls-29" d="M1393.72,642.94c-4.53-4.25-9-8.53-13.59-12.74-1.39-1.28-2.93-2.38-4.4-3.57,2.33.36,4.67.65,7,1.08,4.76.88,9.51,1.84,14.26,2.76,0,1.73.3,3.57-.17,5.17A64.62,64.62,0,0,1,1393.72,642.94Z"/><path class="cls-9" d="M1343.49,621.06l19.43,6.13c2.8.88,5.61,1.73,8.38,2.72.66.24,1.14,1,1.7,1.48l-29.19-9.58c-.4,1.71-.76,3.27-1.13,4.84A5.48,5.48,0,0,1,1343.49,621.06Z"/><path class="cls-9" d="M1397,630.47c-4.75-.92-9.5-1.88-14.26-2.76-2.32-.43-4.66-.72-7-1.08l-2.28-1,.21-.57,23.23,4.35Z"/><path class="cls-17" d="M1400,622.68l7,1.49-.12.59c-3.11,1.07-5.43.63-7.07-1.35Z"/><path class="cls-9" d="M1342.7,627.43c.11.41.23.81.35,1.22C1342.93,628.24,1342.81,627.84,1342.7,627.43Z"/><path class="cls-9" d="M1342.61,627l.09.39Z"/><path class="cls-30" d="M1321.92,618.14c-.13,4.64-2.72,8-5.88,11-5.07,4.76-10.69,8.67-17.45,10.73-6.93,2.1-13.31.89-19.42-2.79a27.08,27.08,0,0,1-10.16-10c4.69-2.1,9.32-4.31,14.06-6.27,3.22-1.33,6.5-2.89,9.88-3.34,4.14-.54,8.41-.08,12.62,0C1311,617.68,1316.47,617.93,1321.92,618.14Z"/><path class="cls-22" d="M1268.16,607.88c1.15-2.63,3.67-3.26,6-3.94a29.84,29.84,0,0,1,13.16-.45c6.55,1.11,13.13,2.14,19.56,3.74a55.81,55.81,0,0,1,10.92,4.49,7,7,0,0,1,3.74,5.32c-4.34-.12-8.69-.25-13-.35s-8.83-.23-13.24-.22a14.33,14.33,0,0,0-5.21.61c-7.23,2.93-14.36,6.08-21.53,9.16-2.15-3.15-2.34-6.75-2.38-10.39l.41,0c.19,1.52.37,3,.57,4.71.5-.17.92-.3,1.33-.47l18.85-7.49,2.7-1.08,2.39-.14a55.73,55.73,0,0,0-7.15-1.32Q1276.72,609,1268.16,607.88Z"/><path class="cls-9" d="M1268.57,626.24c7.17-3.08,14.3-6.23,21.53-9.16a14.33,14.33,0,0,1,5.21-.61c4.41,0,8.83.12,13.24.22s8.69.23,13,.35c.12.37.23.73.34,1.1-5.45-.21-10.9-.46-16.35-.62-4.21-.12-8.48-.58-12.62,0-3.38.45-6.66,2-9.88,3.34-4.74,2-9.37,4.17-14.06,6.27C1268.87,626.8,1268.72,626.52,1268.57,626.24Z"/><path class="cls-9" d="M1266.6,615.88l-.41,0c.39-2.23.74-4.47,1.19-6.7a4.28,4.28,0,0,1,.78-1.27q8.56,1.1,17.13,2.21a55.73,55.73,0,0,1,7.15,1.32l-2.39.14c-.73,0-1.46,0-2.18-.15-6-.79-11.92-1.64-17.89-2.36a2.19,2.19,0,0,0-1.83,1C1267.48,611.94,1267.09,613.93,1266.6,615.88Z"/><path class="cls-17" d="M1260.48,599.71a7.16,7.16,0,0,1,7.21.85C1265.73,602.05,1262.82,601.7,1260.48,599.71Z"/><path class="cls-17" d="M1448.51,620.65l3,5.12-17.2,10c-3.54,2.06-6.71,1.19-8.73-2.38,4.87-2.79,9.71-5.61,14.6-8.36C1442.89,623.52,1445.72,622.11,1448.51,620.65Z"/><path class="cls-18" d="M1448.51,620.65c-2.79,1.46-5.62,2.87-8.38,4.41-4.89,2.75-9.73,5.57-14.6,8.36a5.58,5.58,0,0,1,2.31-7.73c4.42-2.6,8.82-5.24,13.25-7.83,1.44-.85,2.93-1.63,4.4-2.44a.93.93,0,0,0,.35.13q1.38,2.4,2.75,4.8A.46.46,0,0,1,1448.51,620.65Z"/><path class="cls-28" d="M1456,619.55c-.73.48-1.28,1-1.43.92a7.71,7.71,0,0,1-1.38-1.36c.39-.27.83-.82,1.15-.75C1454.8,618.46,1455.21,619,1456,619.55Z"/><path class="cls-31" d="M1535.63,647.77a36,36,0,0,1,1.8-39.46c8.07-10.95,19.12-16,32.61-15.06a32.35,32.35,0,0,1,20.51,8.71c2.81,2.64,5.12,5.8,7.66,8.73,0,.24,0,.48.07.72q-12.63,7.43-25.27,14.83-14.27,8.35-28.56,16.67C1541.55,644.59,1538.57,646.15,1535.63,647.77Z"/><path class="cls-32" d="M1535.63,647.77c2.94-1.62,5.92-3.18,8.82-4.86q14.31-8.29,28.56-16.67,12.65-7.4,25.27-14.83a31.45,31.45,0,0,1,4.31,11.18,35.48,35.48,0,0,1-8.39,30.86c-8.16,8.94-18.33,13.24-30.33,12.16s-21.38-6.77-27.78-17.11c-.1-.16-.31-.23-.47-.35A.55.55,0,0,1,1535.63,647.77Z"/><path class="cls-33" d="M1382.15,705.15a19.72,19.72,0,0,0,1.09-3.13c.43-2.38,2.19-2.67,4.08-2.84l22.43-2a10,10,0,0,1,6.22,1.43c10,5.85,20.21,11.52,30.33,17.26a19.7,19.7,0,0,1,1.61,1.15l-4.9-.38-4.4-1.13-7.79-1.45c-.24-.29-.42-.7-.74-.87-5.74-3.12-11.49-6.24-17.26-9.31-1-.54-2.2-1.31-3.23-1.22-4.76.42-9.51,1.07-14.24,1.73a2.58,2.58,0,0,0-2.44,2.65Z"/><path class="cls-27" d="M1382.15,705.15l10.76,1.93c1,.27,2,.63,3,.81q11.4,2.1,22.8,4.13c4,.72,8.1,1.39,12.14,2.08l7.79,1.45-8.65,3.87c-5.79-1.17-11.57-2.4-17.37-3.49-6.72-1.27-13.46-2.4-20.19-3.63q-12.7-2.31-25.4-4.69l0-.05q.61-2.4,1.21-4.8Z"/><path class="cls-9" d="M1337.58,698.07c4.21.07,8.42.09,12.63.21,5.2.15,10.4.37,15.6.56l.43,1.45-15.85-1c-4-.27-8-.52-12-.8A2.86,2.86,0,0,1,1337.58,698.07Z"/><path class="cls-27" d="M1443,716.68l4.9.38,4,1.23-.78,4.78a2.66,2.66,0,0,1-.39.07l-2.66-.44a7.73,7.73,0,0,0-3.56-4.88Z"/><path class="cls-20" d="M1451.11,723.07l.78-4.78,2.8.39c-.28,1.59-.56,3.18-.83,4.77Z"/><path class="cls-33" d="M1444.5,717.82a7.73,7.73,0,0,1,3.56,4.88q.29,2.71.58,5.43c-.12.58-.24,1.15-.35,1.73-.39.4-.81.78-1.17,1.2-.63.76-1.08,1.79-1.87,2.27-6.35,3.81-12.78,7.51-19.17,11.25l-22.4,13.16c-1.59.61-1.38,2.13-1.54,3.34a25.83,25.83,0,0,1-8.05,15.45c-6.34,6.22-14.06,9.89-22.55,12.15-.23.06-.41.32-.61.48-2.48-2.39-4.91-4.83-7.44-7.16-4.73-4.32-9.52-8.58-14.27-12.87-.48-.43-.92-.91-1.37-1.36a18.76,18.76,0,0,1,1.47-2.06c4.78-5.28,9.77-10.39,14.29-15.88,1.81-2.19,2.68-5.18,3.8-7.88,2.49-6,4.89-12,7.27-18,1.1-2.8,2.08-5.65,3.11-8.47l8.74,1.6c-1.7,5.27-3.12,10.56-2.83,16.22.19,3.58,1.07,6.49,4.81,7.76,2,2.9,8.6,4.18,11.87,2.3q4.29-2.46,8.59-5c9.07-5.32,18.12-10.67,27.21-16C1438.91,720.81,1441.72,719.35,1444.5,717.82Z"/><path class="cls-34" d="M1386.53,717.05l-8.74-1.6-11.84-2,1-5.81q12.7,2.35,25.4,4.69c6.73,1.23,13.47,2.36,20.19,3.63,5.8,1.09,11.58,2.32,17.37,3.49l-7.54,4.18c-.64-.17-1.27-.38-1.91-.49-5.1-.89-10.21-1.74-15.31-2.65C1399,719.35,1392.75,718.19,1386.53,717.05Z"/><path class="cls-35" d="M1403.68,757.74l22.4-13.16c6.39-3.74,12.82-7.44,19.17-11.25.79-.48,1.24-1.51,1.87-2.27.36-.42.78-.8,1.17-1.2l1.21.06c.8,1.21,1.6,2.43,2.41,3.64.1.25.21.49.32.74a10.29,10.29,0,0,1-1.1,6.52c-2.56,4.25-7.11,5.29-12,2.7-.68-.36-1.34-.77-2.37-1.36,1,4.58,0,8.27-3.94,10.58s-7.72.45-11.57-1.79v2.56A7.69,7.69,0,0,1,1412,761a36.59,36.59,0,0,1-5.46-2.07Z"/><path class="cls-34" d="M1464.7,729.08c0,.58-.09,1.16-.16,2.1l-11.46-2.13c.27-1.73.54-3.45.82-5.18l11.19,2Z"/><path class="cls-21" d="M1453.9,723.87c-.28,1.73-.55,3.45-.82,5.18l-2.81-.72.45-5.19a2.66,2.66,0,0,0,.39-.07l2.75.38C1453.87,723.59,1453.88,723.73,1453.9,723.87Z"/><path class="cls-8" d="M1478.61,727.45v0Z"/><path class="cls-34" d="M1450.72,723.14l-.45,5.19-1.63-.2q-.3-2.71-.58-5.43Z"/><path class="cls-9" d="M1373,631.4l.33.3Z"/><path class="cls-30" d="M1266.6,615.88c.49-2,.88-3.94,1.55-5.83a2.19,2.19,0,0,1,1.83-1c6,.72,11.93,1.57,17.89,2.36.72.1,1.45.11,2.18.15l-2.7,1.08-18.85,7.49c-.41.17-.83.3-1.33.47C1267,618.93,1266.79,617.4,1266.6,615.88Z"/><path class="cls-25" d="M1422.42,723.6l7.54-4.18,8.65-3.87,4.4,1.13,1.49,1.14c-2.78,1.53-5.59,3-8.32,4.58-9.09,5.3-18.14,10.65-27.21,16q-4.29,2.5-8.59,5c-3.27,1.88-9.83.6-11.87-2.3,3-.85,6.22-1.27,9-2.63,4.53-2.23,8.78-5,13.13-7.65C1414.56,728.39,1418.48,726,1422.42,723.6Z"/><path class="cls-35" d="M1430.82,714.1c-4-.69-8.09-1.36-12.14-2.08q-11.4-2-22.8-4.13c-1-.18-2-.54-3-.81a2.58,2.58,0,0,1,2.44-2.65c4.73-.66,9.48-1.31,14.24-1.73,1-.09,2.21.68,3.23,1.22,5.77,3.07,11.52,6.19,17.26,9.31C1430.4,713.4,1430.58,713.81,1430.82,714.1Z"/><path class="cls-35" d="M1422.42,723.6c-3.94,2.38-7.86,4.79-11.81,7.15-4.35,2.6-8.6,5.42-13.13,7.65-2.75,1.36-6,1.78-9,2.63-3.74-1.27-4.62-4.18-4.81-7.76-.29-5.66,1.13-10.95,2.83-16.22,6.22,1.14,12.44,2.3,18.67,3.41,5.1.91,10.21,1.76,15.31,2.65C1421.15,723.22,1421.78,723.43,1422.42,723.6Z"/></g></g></svg>