<svg id="Layer_1" data-name="Layer 1" xmlns="http://www.w3.org/2000/svg" xmlns:xlink="http://www.w3.org/1999/xlink" viewBox="0 0 1920 1080"><defs><style>.cls-1{fill:#fff;}.cls-2{mask:url(#mask);}.cls-3{opacity:0.83;}.cls-4{fill:url(#linear-gradient);}</style><mask id="mask" x="-1592.35" y="-2121" width="5098.67" height="2868" maskUnits="userSpaceOnUse"/><linearGradient id="linear-gradient" x1="-1591.85" y1="-687" x2="3505.81" y2="-687" gradientUnits="userSpaceOnUse"><stop offset="0.04" stop-color="#005980"/><stop offset="0.4" stop-color="teal"/><stop offset="1" stop-color="#00d99d"/></linearGradient></defs><title>white_logo</title><path class="cls-1" d="M185,320.08a859.78,859.78,0,0,0-.84,89.56q1.89,45.74,6.1,89.74,12.25-2.2,23.83-4.43t21.6-4q10-1.82,18.19-3.44t13.63-2.69c15.74-3.07,28.49-6.29,38.26-9.75,1.32,2.33,2.44,4.46,3.33,6.41A24.15,24.15,0,0,1,311,487q1.76,9.64-7.14,14.23c-5.94,3.07-14.83,5.72-26.68,8q-17,3.3-38.35,5.83t-46.62,6.47q2.25,23.91,5.23,46.41t6.17,42.33Q206.77,630.11,210,647t6,29.26a299.89,299.89,0,0,0,11.89,40.95q6.71,17.69,16.23,28.94a49.14,49.14,0,0,0,22.68,15.52c8.77,2.85,19.12,3,31.08.61a122.25,122.25,0,0,0,28.05-9.87,258.78,258.78,0,0,0,33.93-20.19,22.59,22.59,0,0,1,10.08,13.12Q356.61,757,343,767.15t-27.09,18.29a228.78,228.78,0,0,1-26.33,13.76,132.25,132.25,0,0,1-24.93,8.23,79.76,79.76,0,0,1-30.1,1.05q-14.29-2.38-27.05-13.69t-23.61-33Q173,740.09,164.57,705q-4.73-19.72-9-40.81t-8.13-42.84q-3.86-21.75-6.94-43.69T135.1,534.3q-20.2,5-37.19,10.48A210.16,210.16,0,0,0,69.35,556a6,6,0,0,1-1.54-2.83c-.77-3,.24-6.31,3.06-9.86S78,536.1,83.66,532.37a138.19,138.19,0,0,1,21.17-11A259.62,259.62,0,0,1,133,511.45q-4.72-46.71-7.18-88.69t-2.63-75.28A19.77,19.77,0,0,1,126.06,337a28.15,28.15,0,0,1,7.22-7.79,41.62,41.62,0,0,1,9.92-5.4,75.05,75.05,0,0,1,11-3.31,78.87,78.87,0,0,1,16.51-1.95A66.38,66.38,0,0,1,185,320.08Z"/><path class="cls-1" d="M473.44,764.6l-3.85.35q-1.23-21.21-3.21-46.14t-4.26-50.61q-2.3-25.68-4.85-50.86t-4.84-47q-2.3-21.86-4.42-39.1t-3.58-27.17a111.14,111.14,0,0,0-2.83-14,22.68,22.68,0,0,0-5-9.4,15.86,15.86,0,0,0-8.79-4.67c-3.64-.73-8.42-.65-14.3.25-2.95.46-5.95,1.07-9,1.85s-6.45,1.77-10.17,3-7.87,2.65-12.46,4.37S372,489.18,366,491.54q-3.27-7.59-6.56-15.16c27.28-13.64,49.79-23.46,67.23-29.73s29.38-9.76,35.68-10.63c11.55-1.6,20.21.15,25.93,5.16s9.3,13.14,10.74,24.33c.13,1,.34,4.08.65,9.13s.66,11.63,1.1,19.74.92,17.51,1.44,28.23,1,22.22,1.53,34.51.94,25.13,1.34,38.48.74,26.68,1,40l2.51-.11a669.24,669.24,0,0,1,16.84-84.26q10.69-39.39,27.1-69.32t38.58-48.21a90.46,90.46,0,0,1,50.73-20.81,63,63,0,0,1,19,1.08,47.44,47.44,0,0,1,15.62,6.24,36.51,36.51,0,0,1,10.86,10.56A28.84,28.84,0,0,1,692,444.8a39.58,39.58,0,0,1-3.65,19.6Q684,474,673.7,482l-2.07.17a82.6,82.6,0,0,0-21.55-9.49,60.75,60.75,0,0,0-20.94-1.59,67.75,67.75,0,0,0-41,18.82q-13.53,13-24,33.41a278.4,278.4,0,0,0-17.91,44.57,458.28,458.28,0,0,0-12.43,50.56q-4.93,26.31-7.6,51t-3.39,46.27q-.74,21.56-.25,36.1Q497.94,758,473.44,764.6Z"/><path class="cls-1" d="M961,417q1.08-20.26,2.71-38.88T968,341.43q2.73-18,6.76-36.06T984.71,268q11.25-37.56,32.56-64a184.69,184.69,0,0,1,104.84-65.58,212,212,0,0,1,57.9-4.91,193.74,193.74,0,0,1,37.57,5.57,140.18,140.18,0,0,1,29.56,11,96.6,96.6,0,0,1,21.57,15,63.61,63.61,0,0,1,13.43,17.43,167,167,0,0,1,33.27-20,204.32,204.32,0,0,1,35.73-12.29,194.4,194.4,0,0,1,36.4-5.31,210.07,210.07,0,0,1,35.23,1.16q26.94,3.25,47.87,11.79t34.75,20.1q13.88,11.55,20.11,25.22a47.5,47.5,0,0,1,4.16,27.32,44.46,44.46,0,0,1-6.9,18.56,43.29,43.29,0,0,1-13,12.6,48.77,48.77,0,0,1-17,6.54,59.26,59.26,0,0,1-19.11.35,72.14,72.14,0,0,1-14.62-3.67,64.85,64.85,0,0,1-14.18-7.15c-.26-.93-.51-1.86-.76-2.79a106.68,106.68,0,0,0,12-19,57.7,57.7,0,0,0,5.38-17.15,37.47,37.47,0,0,0-1.93-18.68,39.46,39.46,0,0,0-10.44-15.07,56.22,56.22,0,0,0-17.8-10.66,96.39,96.39,0,0,0-23.62-5.65q-22.56-2.64-40.06.9a96.35,96.35,0,0,0-30.91,11.6,91.32,91.32,0,0,0-23.09,19.6,139.41,139.41,0,0,0-16.75,25A187.2,187.2,0,0,0,1285,254q-4.89,14.67-8.56,28.67-5,19.25-8.73,36.71t-7,35q-3.21,17.52-5.8,36.08t-5.14,40q19.65,2.07,40.21,4.41t43.61,4.77c18.51,1.95,38.65,3.31,60.42,4.19s46.18.45,73.32-1.07q-7.93,25.65-14.47,50.6t-11.74,48.3q-5.19,23.34-9,44.41t-6.25,38.72q-3.19,23.18-4.76,39.93a280.05,280.05,0,0,0-1.45,28.37,92.13,92.13,0,0,0,1.72,18.69,28.42,28.42,0,0,0,4.83,11.25,18.21,18.21,0,0,0,8,6,53.44,53.44,0,0,0,11,2.74,112.11,112.11,0,0,0,25.43.61,190.84,190.84,0,0,0,28.56-4.55q1.35,6.11,2.69,12.19a162.07,162.07,0,0,1-23.85,9.43q-14.11,4.51-29.29,7.86a261.51,261.51,0,0,1-29.38,4.81q-14.2,1.47-24.22.14a64.29,64.29,0,0,1-12-2.72,21.56,21.56,0,0,1-9.27-6.26q-3.93-4.43-6.43-12.71t-3.14-21.94a322.1,322.1,0,0,1,.6-33.94q1.24-20.26,4.72-48.8,3.15-25.87,8.11-59.16t12.54-73.65q1.66-9.23,3.65-17.85t4.69-19.73l-1.22-.83a270.74,270.74,0,0,1-35.48.94q-17.85-.69-35.8-2.56-20.31-2.1-39.93-4.48T1247,454.13q-3.15,25.89-7.3,56.29t-9.24,62.74q-5.1,32.34-11.42,65.36t-13.78,64.42q-7.47,31.39-16.1,59.92a469.3,469.3,0,0,1-18.64,51.52q-16.08,36.45-34,60.17t-36.89,37.81c-12.65,9.37-25.54,15.88-38.77,19.53a136.75,136.75,0,0,1-39.41,5.05,114.4,114.4,0,0,1-30.71-4.39,83.31,83.31,0,0,1-22.53-10.19,46.93,46.93,0,0,1-13.93-13.83,28.8,28.8,0,0,1-4.81-15.25c0-6.24,2.37-11.93,7.19-17s12.55-8.8,23.17-11a99,99,0,0,0,13.51,18.17,68.63,68.63,0,0,0,15,12,61.11,61.11,0,0,0,16.76,6.67,91.28,91.28,0,0,0,18.63,2.36c17.3.48,32.14-4.35,44.73-14.59s23.41-25,32.56-44.31,16.91-42.71,23.26-70.24,11.87-58.33,16.48-92.42,8.59-71,11.84-110.76,6.43-81.41,9.53-125q-31.64-1.54-63.38-3.43t-62.36-2.73q-7.85-.21-15.7-.4l-7.58-.17c-2.62-.06-5.15,0-7.6.07q-1.56,26.49-3.67,57.64t-5.11,64.53q-3,33.38-7,67.73t-9.42,67q-5.42,32.67-12.38,62.35a480.17,480.17,0,0,1-15.74,53.92q-14,38-30.85,63.61T905.9,918.75q-18.67,15.79-38.56,22.94a136.42,136.42,0,0,1-72.05,5.74,99.8,99.8,0,0,1-26.11-8.78,57.15,57.15,0,0,1-18-13.92A30.52,30.52,0,0,1,743.7,907a24.3,24.3,0,0,1,1.79-10.72,29.33,29.33,0,0,1,6.37-9.7A37.1,37.1,0,0,1,762,879.38,33.46,33.46,0,0,1,775,876,99.37,99.37,0,0,0,790.8,894.9a81.87,81.87,0,0,0,17.78,12.49,76.06,76.06,0,0,0,19.2,6.84,83.35,83.35,0,0,0,19.84,1.68c17.39-.61,32-6.52,44-17.84s22.09-27.13,30.29-47.49S936.6,805.7,941.37,777s8.49-60.59,11.13-95.72,4.46-73.08,5.4-113.85,1.6-83.51,2-128.21q-24.6,1.09-45.37,2.92c-13.85,1.2-25.45,3.43-34.78,6.6a9.06,9.06,0,0,1-1.14-4.21c-.07-3.56,1.81-7,5.68-10.15s9.41-6,16.64-8.43a160.47,160.47,0,0,1,26.1-6A288.34,288.34,0,0,1,961,417Zm252.71-186.48c1.88-3.14,3.52-5.93,4.89-8.37a44.58,44.58,0,0,0,3.29-7.14,69.32,69.32,0,0,0,2-6.79,41.11,41.11,0,0,0,1.06-7.07,30.69,30.69,0,0,0-4.18-18.71,42.2,42.2,0,0,0-13.5-13.52,68.44,68.44,0,0,0-19.29-8.35,105.44,105.44,0,0,0-21.47-3.46c-14.88-.81-28,.32-39.36,3.31a98.26,98.26,0,0,0-29.73,13,87.94,87.94,0,0,0-21.6,20.22,130.79,130.79,0,0,0-15,25.19,186.56,186.56,0,0,0-10,27.94q-4,14.49-6.73,28.25-3.74,18.85-6.39,35.62T1032.93,344q-2.1,16.67-3.51,34.35t-2.61,38.39q4.23-.14,8.17-.05l7.9.18q8.17.19,16.33.42,31.86.92,63.3,2.8t61.63,4.49q2.37-21.06,5.2-40.08t6.71-37.41q3.9-18.37,9.07-36.8t12.33-38a170.75,170.75,0,0,1,7.64-18.45q4.22-8.62,8.71-16.79a122.37,122.37,0,0,1-19.19-4Z"/><path class="cls-1" d="M1766.58,588.57q9.89-10.26,12.85-22.6a37.81,37.81,0,0,0-6.89-32.42,52.36,52.36,0,0,0-15.24-13.13,79.74,79.74,0,0,0-23.58-8.86q-20.15-4.46-37.41-1.81a92.53,92.53,0,0,0-31.6,10.64,104.33,104.33,0,0,0-25.59,20.11,146.49,146.49,0,0,0-19.73,26.81,182.09,182.09,0,0,0-14.11,30.77,216.89,216.89,0,0,0-8.61,31.81q-5.33,28.23-1.49,52.9t14.35,43.65a102.9,102.9,0,0,0,26.89,31.73,90.9,90.9,0,0,0,36.81,17.25c14.48,3.2,29.88,3.09,46.39-.27s33.63-10.94,51.55-22.7c.85.68,1.95,1.6,3.26,2.77A27.64,27.64,0,0,1,1778,759a34.05,34.05,0,0,1,2.6,3.87,4.5,4.5,0,0,1,.73,3.18c-.15.57-.33.91-.52,1l-.7.75q-31.83,28-67.88,37.31c-24.1,6.23-48.72,6.61-74.22,1.21a139.13,139.13,0,0,1-37.22-13.24,127.16,127.16,0,0,1-29-21.07,123.49,123.49,0,0,1-21.07-27.25,141.83,141.83,0,0,1-13.3-31.57,152.45,152.45,0,0,1-5.64-34,156.76,156.76,0,0,1,2-34.58,191.78,191.78,0,0,1,13.68-45.24,196,196,0,0,1,24.85-41.55,202.1,202.1,0,0,1,34.84-34.88,179.21,179.21,0,0,1,43.27-25.05,175,175,0,0,1,50.36-12,177.39,177.39,0,0,1,55.44,4,169.11,169.11,0,0,1,38.64,13.56q17.34,8.73,28.65,19.93a65.55,65.55,0,0,1,16,24.24,44.17,44.17,0,0,1,1.2,26.63,38,38,0,0,1-7.17,14.83,35.49,35.49,0,0,1-11.8,9.42,40.26,40.26,0,0,1-15.19,4,56.7,56.7,0,0,1-17.35-1.64,74.93,74.93,0,0,1-11.22-3.74,64.86,64.86,0,0,1-11-5.94Z"/><path class="cls-1" d="M808.06,415.25q-3.43,25.56-5.43,51.18T799.78,516q-.85,23.89-.76,45.19t.88,38.43q1.07,23.14,2.56,39.69a278.71,278.71,0,0,0,3.73,27.82A92.48,92.48,0,0,0,811.28,685a28.41,28.41,0,0,0,6.77,10.19,18,18,0,0,0,8.94,4.44,53.58,53.58,0,0,0,11.33.69,112.36,112.36,0,0,0,25-4,188.56,188.56,0,0,0,27.15-9.68q2.43,5.75,4.85,11.5a161.85,161.85,0,0,1-21.64,13.62q-13,7-27.27,13.06a261.4,261.4,0,0,1-27.92,10.09c-9.11,2.68-17,4.21-23.72,4.54a70.56,70.56,0,0,1-12.28-.37,20.23,20.23,0,0,1-10.24-4.46q-4.66-3.76-8.61-11.33t-7.07-20.79A319.39,319.39,0,0,1,751,669.36q-2.46-19.93-4.22-48.4-1-16.68-2-37.71T743.2,538q-.72-24.16-1.07-51t0-55.47a17,17,0,0,1,3.34-10.35,22.83,22.83,0,0,1,8.08-6.49,41.49,41.49,0,0,1,10.53-3.48,75.59,75.59,0,0,1,10.38-1.32A79.37,79.37,0,0,1,808.06,415.25Z"/><path class="cls-1" d="M782.42,359.48a40.82,40.82,0,0,1-16.76-2.39,39.83,39.83,0,0,1-12.79-7.79,36.24,36.24,0,0,1-8.47-11.57A37.5,37.5,0,0,1,740.89,324a37,37,0,0,1,3-17.92,40.64,40.64,0,0,1,9.89-13.5,45,45,0,0,1,14-8.55,49.69,49.69,0,0,1,15.45-3.31,46.35,46.35,0,0,1,16.79,2.05,38.28,38.28,0,0,1,13,7.16,34.39,34.39,0,0,1,8.59,10.94,33,33,0,0,1,3.34,13.59A39.76,39.76,0,0,1,822.36,330a47.68,47.68,0,0,1-8.49,14.25,44.4,44.4,0,0,1-13.54,10.59A42.9,42.9,0,0,1,782.42,359.48Z"/><path class="cls-1" d="M1454.14,389.23a40.9,40.9,0,0,1-16.06-5.42,40,40,0,0,1-11.18-10,36.31,36.31,0,0,1-6.23-12.93,39.06,39.06,0,0,1,5.33-31.21,40.6,40.6,0,0,1,12.21-11.46,45.35,45.35,0,0,1,15.41-5.83,50.33,50.33,0,0,1,15.82-.43,46.91,46.91,0,0,1,16.17,5.09,38.56,38.56,0,0,1,11.51,9.43,34.31,34.31,0,0,1,6.46,12.33,32.87,32.87,0,0,1,.81,14,39.54,39.54,0,0,1-5.5,14.83,47.74,47.74,0,0,1-11,12.46,44.57,44.57,0,0,1-15.28,7.93A43.24,43.24,0,0,1,1454.14,389.23Z"/><g class="cls-2"><rect class="cls-1" x="-1591.85" y="-2120.5" width="5097.67" height="2867"/><path d="M3505.31-2120V746H-1591.35V-2120H3505.31m1-1H-1592.35V747H3506.31V-2121Z"/><g class="cls-3"><rect class="cls-4" x="-1591.85" y="-2120.5" width="5097.67" height="2867"/><path d="M3505.31-2120V746H-1591.35V-2120H3505.31m1-1H-1592.35V747H3506.31V-2121Z"/></g></g></svg>